Coordinates
version=1
nRows=14
nColumns=46
inDegrees=yes

Units are S.I. units (second, meters, Newtons, ...)
Angles are in degrees.

endheader
time	pelvis_tilt	pelvis_list	pelvis_rotation	pelvis_tx	pelvis_ty	pelvis_tz	bb_angle	bb_tx	bb_ty	bb_tz	hip_flexion_r	hip_adduction_r	hip_rotation_r	knee_angle_r	knee_angle_r_beta	ankle_angle_r	subtalar_angle_r	mtp_angle_r	crank_angle_r	hip_flexion_l	hip_adduction_l	hip_rotation_l	knee_angle_l	knee_angle_l_beta	ankle_angle_l	subtalar_angle_l	mtp_angle_l	crank_angle_l	lumbar_extension	lumbar_bending	lumbar_rotation	arm_flex_r	arm_add_r	arm_rot_r	elbow_flex_r	pro_sup_r	wrist_flex_r	wrist_dev_r	arm_flex_l	arm_add_l	arm_rot_l	elbow_flex_l	pro_sup_l	wrist_flex_l	wrist_dev_l
      0.00500000	    -16.58610216	     -1.35127455	     -1.84387943	      0.18884474	      1.04431637	     -0.30473258	      0.00000000	      0.50000000	      0.00000000	      0.25000000	     90.16647436	     -1.52426617	      4.51600644	     95.43530790	      1.66566035	     12.39214558	     -3.79938737	      0.00000000	      0.00000000	     51.59181768	     -9.05592706	     -0.08499174	     67.90542149	      1.18517318	    -10.29266481	     -8.80385528	      0.00000000	      0.00000000	    -59.47428947	      0.14931053	      3.11793375	     89.51491567	     -4.79082687	     24.36199336	     40.08636254	     30.36278331	      0.00000000	      0.00000000	     87.10124970	     -2.69020643	     18.68400938	     42.17367387	     34.85897891	      0.00000000	      0.00000000
      0.01000000	    -16.38169290	     -1.17377088	     -1.93681590	      0.18905874	      1.04486964	     -0.30475371	      0.00000000	      0.50000000	      0.00000000	      0.25000000	     89.93328898	     -1.50413718	      4.69484742	     95.43436220	      1.66564384	     12.53654330	     -3.52298926	      0.00000000	      0.00000000	     51.21853280	     -8.95530523	     -0.39787057	     67.70703632	      1.18171071	    -10.78905044	     -9.80937874	      0.00000000	      0.00000000	    -59.81128763	     -0.00995300	      2.89081131	     89.51682830	     -4.49814352	     23.42828888	     40.13096270	     32.02929074	      0.00000000	      0.00000000	     86.64611737	     -2.85114963	     17.55209333	     44.19453185	     35.93828404	      0.00000000	      0.00000000
      0.01500000	    -16.58161030	     -1.39128210	     -1.84220724	      0.18890060	      1.04432228	     -0.30470216	      0.00000000	      0.50000000	      0.00000000	      0.25000000	     90.12401685	     -1.52092802	      4.45118847	     95.43025560	      1.66557217	     12.46588517	     -3.83590951	      0.00000000	      0.00000000	     51.57011292	     -9.08561536	     -0.04640369	     67.89687789	      1.18502407	    -10.23514307	     -8.78326612	      0.00000000	      0.00000000	    -59.47999858	      0.18121352	      3.17157754	     89.51789887	     -4.76944109	     24.02588515	     39.68729224	     32.19901338	      0.00000000	      0.00000000	     87.13058459	     -2.63057318	     18.43511589	     41.95513219	     35.87639457	      0.00000000	      0.00000000
      0.02000000	    -16.58890159	     -1.39259473	     -1.86595418	      0.18899933	      1.04430051	     -0.30457491	      0.00000000	      0.50000000	      0.00000000	      0.25000000	     90.08357161	     -1.42232879	      4.52943724	     95.41914075	      1.66537818	     12.64329775	     -3.83134564	      0.00000000	      0.00000000	     51.57000564	     -9.13786475	     -0.10299784	     67.90411271	      1.18515034	    -10.21567939	     -8.74834978	      0.00000000	      0.00000000	    -59.43708916	      0.19697631	      3.24464773	     89.51057346	     -4.99049896	     24.63621829	     39.74241902	     32.52901379	      0.00000000	      0.00000000	     87.10264304	     -2.76959442	     18.19796794	     41.70639979	     36.32651006	      0.00000000	      0.00000000
      0.02500000	    -16.62665588	     -1.36294165	     -1.81237912	      0.18888733	      1.04442825	     -0.30463668	      0.00000000	      0.50000000	      0.00000000	      0.25000000	     90.13384609	     -1.53975039	      4.53827170	     95.47099481	      1.66628320	     12.70637569	     -3.76645273	      0.00000000	      0.00000000	     51.61106451	     -9.02021572	     -0.03043838	     67.85402664	      1.18427618	    -10.34576511	     -8.89047075	      0.00000000	      0.00000000	    -59.41096318	      0.27747517	      3.11878241	     89.50782347	     -4.87825554	     24.56066040	     39.71524768	     32.62886676	      0.00000000	      0.00000000	     87.05229793	     -2.74923639	     18.17025239	     41.85613548	     36.64050320	      0.00000000	      0.00000000
      0.03000000	    -16.57142727	     -1.42899936	     -1.80168921	      0.18885064	      1.04458402	     -0.30461972	      0.00000000	      0.50000000	      0.00000000	      0.25000000	     90.04646765	     -1.55937492	      4.43713423	     95.45835853	      1.66606265	     12.77777499	     -3.83887025	      0.00000000	      0.00000000	     51.56274070	     -9.05871273	      0.03467015	     67.84349432	      1.18409235	    -10.39561797	     -8.92928615	      0.00000000	      0.00000000	    -59.53635488	      0.30914443	      3.19658410	     89.50678406	     -4.89975443	     24.26584774	     40.08294529	     32.93544526	      0.00000000	      0.00000000	     86.97336984	     -2.72129110	     17.99769047	     42.29101331	     36.97324181	      0.00000000	      0.00000000
      0.03500000	    -16.67421521	     -1.41557860	     -1.79539563	      0.18881113	      1.04443251	     -0.30455920	      0.00000000	      0.50000000	      0.00000000	      0.25000000	     90.15749120	     -1.54399684	      4.46739118	     95.46901206	      1.66624859	     12.77825496	     -3.85493466	      0.00000000	      0.00000000	     51.69178418	     -9.05011306	      0.04626638	     67.85706581	      1.18432922	    -10.38230150	     -8.81561091	      0.00000000	      0.00000000	    -59.36866811	      0.28678160	      3.21654916	     89.50941188	     -5.00638993	     24.66908089	     39.72283570	     33.00220280	      0.00000000	      0.00000000	     87.14249922	     -2.67410017	     18.38511761	     41.43330035	     37.47879135	      0.00000000	      0.00000000
      0.04000000	    -16.60075153	     -1.38436151	     -1.79667396	      0.18886549	      1.04468301	     -0.30459056	      0.00000000	      0.50000000	      0.00000000	      0.25000000	     90.05871243	     -1.55637290	      4.49643480	     95.47175498	      1.66629647	     12.87270693	     -3.82431497	      0.00000000	      0.00000000	     51.58369175	     -9.02818397	     -0.04445925	     67.77045423	      1.18281756	    -10.68787344	     -9.19428064	      0.00000000	      0.00000000	    -59.55417629	      0.29584703	      3.13683028	     89.50587338	     -4.85837291	     24.10266998	     40.01882616	     33.75194353	      0.00000000	      0.00000000	     86.89040328	     -2.76154616	     17.79456608	     42.60186912	     38.09606465	      0.00000000	      0.00000000
      0.04500000	    -16.70599139	     -1.39999139	     -1.78871858	      0.18878056	      1.04447110	     -0.30454944	      0.00000000	      0.50000000	      0.00000000	      0.25000000	     90.18021414	     -1.54750939	      4.48672099	     95.47012518	      1.66626802	     12.82020404	     -3.86391129	      0.00000000	      0.00000000	     51.73892415	     -9.03641482	      0.04553354	     67.82444044	      1.18375980	    -10.51851852	     -8.78239464	      0.00000000	      0.00000000	    -59.34498369	      0.29267460	      3.14170346	     89.51394897	     -4.85373828	     24.48548241	     39.47981901	     33.61127778	      0.00000000	      0.00000000	     87.08879196	     -2.70578475	     18.23156869	     41.40353839	     38.19199920	      0.00000000	      0.00000000
      0.05000000	    -16.66742658	     -1.31054925	     -1.77134019	      0.18877870	      1.04462350	     -0.30462574	      0.00000000	      0.50000000	      0.00000000	      0.25000000	     90.14287838	     -1.58468451	      4.58588953	     95.47759086	      1.66639832	     12.88819699	     -3.80772437	      0.00000000	      0.00000000	     51.66947948	     -8.92618946	     -0.01538326	     67.75423733	      1.18253452	    -10.73931190	     -9.06732318	      0.00000000	      0.00000000	    -59.42392153	      0.25333558	      3.00638724	     89.51739079	     -4.76105662	     24.25355602	     39.49935856	     33.96994666	      0.00000000	      0.00000000	     86.94816692	     -2.73185466	     18.06906584	     41.98740643	     38.54359362	      0.00000000	      0.00000000
      0.05500000	    -16.70142157	     -1.28346288	     -1.76952987	      0.18873362	      1.04457815	     -0.30461385	      0.00000000	      0.50000000	      0.00000000	      0.25000000	     90.19799464	     -1.58665993	      4.62188286	     95.49118002	      1.66663550	     12.83755818	     -3.78439944	      0.00000000	      0.00000000	     51.72378935	     -8.91003856	     -0.02317683	     67.76708077	      1.18275868	    -10.76076244	     -8.95211987	      0.00000000	      0.00000000	    -59.36984823	      0.22945756	      2.97100286	     89.51885624	     -4.76856372	     24.37041676	     39.39611928	     33.90075307	      0.00000000	      0.00000000	     87.02220831	     -2.76052357	     18.23383683	     41.69403548	     38.58341711	      0.00000000	      0.00000000
      0.06000000	    -16.73231761	     -1.33719091	     -1.76831996	      0.18867857	      1.04457929	     -0.30458774	      0.00000000	      0.50000000	      0.00000000	      0.25000000	     90.21514311	     -1.56221859	      4.57351589	     95.46870196	      1.66624318	     12.80853184	     -3.85128087	      0.00000000	      0.00000000	     51.78562244	     -8.95852241	      0.03042256	     67.77880629	      1.18296333	    -10.74513244	     -8.84074862	      0.00000000	      0.00000000	    -59.34674528	      0.24037200	      3.12831636	     89.51125573	     -5.04138926	     24.60535654	     39.70776963	     33.63448120	      0.00000000	      0.00000000	     87.19286045	     -2.66286381	     18.70363660	     41.15364624	     38.79807794	      0.00000000	      0.00000000
      0.06500000	    -16.65638432	     -1.19382875	     -1.70154211	      0.18875285	      1.04487195	     -0.30477728	      0.00000000	      0.50000000	      0.00000000	      0.25000000	     90.14645830	     -1.68155725	      4.70708081	     95.51084191	      1.66697866	     12.89944744	     -3.77225468	      0.00000000	      0.00000000	     51.63814515	     -8.74905527	     -0.05707031	     67.63898620	      1.18052301	    -11.05414392	     -9.28764382	      0.00000000	      0.00000000	    -59.48488055	      0.26065299	      2.72057130	     89.53081871	     -4.49909973	     24.07083184	     39.32986073	     34.13459758	      0.00000000	      0.00000000	     86.71159395	     -3.03893935	     17.66932695	     43.07686060	     39.04838278	      0.00000000	      0.00000000
      0.07000000	    -16.72614518	     -1.41017425	     -1.79132084	      0.18856428	      1.04452040	     -0.30450706	      0.00000000	      0.50000000	      0.00000000	      0.25000000	     90.22133485	     -1.49784325	      4.51932553	     95.46616277	      1.66619886	     12.71997787	     -3.90594881	      0.00000000	      0.00000000	     51.86318543	     -9.06178356	      0.07356707	     67.89148401	      1.18492993	    -10.78095176	     -8.67436829	      0.00000000	      0.00000000	    -59.32206279	      0.25483682	      3.12543230	     89.52210232	     -4.88241600	     24.44645785	     39.53411870	     33.93300001	      0.00000000	      0.00000000	     87.11373679	     -2.64245939	     18.53684593	     41.12863287	     38.95200996	      0.00000000	      0.00000000
